<svg width="281.000000" height="281.000000" viewBox="0 0 281 281" fill="none" xmlns="http://www.w3.org/2000/svg" xmlns:xlink="http://www.w3.org/1999/xlink">
	<desc>
			Created with Pixso.
	</desc>
	<defs/>
	<rect id="Rectangle 39486" rx="47.000000" width="281.000000" height="281.000000" fill="#FFFFFF" fill-opacity="1.000000"/>
	<path id="Vector" d="M139.81 19.05C123.07 17.89 106.25 20.29 90.79 26.05C74.62 31.45 60.16 40.16 48.6 51.45C38.07 62.44 30.3 75.25 25.8 89.05L14.62 93.05C18.8 76.86 27.32 61.77 39.48 49.05C52.1 35.78 68.23 25.41 86.45 18.85C101.08 13.36 116.83 10.53 132.74 10.53C148.66 10.53 164.4 13.36 179.03 18.85C193.81 23.97 207.24 31.68 218.49 41.52C229.75 51.35 238.59 63.11 244.48 76.05C250.74 88.88 253.96 102.69 253.96 116.65C253.96 130.61 250.74 144.42 244.48 157.25C238.59 170.27 229.73 182.1 218.44 192.01C207.14 201.92 193.65 209.69 178.8 214.85C160.46 221.64 140.49 224.39 120.66 222.85C101.16 221.38 82.45 215.45 66.39 205.65L185.42 31.05C171.39 24.19 155.83 20.09 139.81 19.05ZM80.3 202.85C94.19 209.95 109.84 213.99 125.9 214.65C148.99 216.01 171.98 210.94 191.59 200.16C211.21 189.39 226.44 173.46 235.13 154.65C240.94 142.84 243.93 130.11 243.93 117.25C243.93 104.39 240.94 91.66 235.13 79.85C230.92 70.8 225.15 62.37 218.02 54.85C211.09 47.46 202.76 41.16 193.4 36.25L80.3 202.85Z" fill="#000000" fill-opacity="1.000000" fill-rule="nonzero"/>
	<path id="Vector" d="M132.06 230.25L119.75 230.25C98.87 228.63 78.84 222.29 61.6 211.85L54.99 207.85L172.88 34.25C161.96 29.81 150.21 27.17 138.22 26.45C122.63 25.33 106.96 27.59 92.61 33.05C78.49 38.18 65.98 46.2 56.13 56.45C45.7 66.36 37.91 78.18 33.32 91.05L32.18 94.65L3 105.65L6.42 91.45C11 74.15 20.05 58 32.87 44.25C46.32 29.93 63.64 18.79 83.26 11.85C98.91 6.01 115.74 3 132.74 3C149.75 3 166.58 6.01 182.22 11.85C198.05 17.24 212.44 25.45 224.48 35.94C236.53 46.44 245.97 59 252.23 72.85C259 86.58 262.49 101.39 262.49 116.35C262.49 131.31 259 146.12 252.23 159.85C245.94 173.73 236.49 186.33 224.45 196.89C212.42 207.45 198.05 215.74 182.22 221.25C166.36 227.17 149.3 230.23 132.06 230.25ZM92.15 199.25C103.02 203.53 114.69 206.04 126.59 206.65C142.18 207.54 157.81 205.22 172.19 199.85C184.75 195.47 196.14 188.85 205.63 180.42C215.13 171.98 222.53 161.92 227.37 150.85C232.84 139.94 235.66 128.16 235.66 116.25C235.66 104.34 232.84 92.55 227.37 81.65C223.48 73.33 218.18 65.57 211.64 58.65C207.18 53.83 202.05 49.53 196.36 45.85L92.15 199.25Z" fill="#000000" fill-opacity="1.000000" fill-rule="nonzero"/>
	<path id="Vector" d="M144.14 261.65C160.99 262.56 177.83 259.81 193.17 253.65C208.49 247.77 222.01 238.79 232.62 227.45C243.27 216.38 251.05 203.41 255.42 189.45L266.37 185.25C262.84 201.47 255.03 216.75 243.56 229.85C231.48 243.3 215.82 253.95 197.96 260.85C183.69 266.55 168.27 269.68 152.61 270.05C136.94 270.43 121.35 268.05 106.75 263.05C91.85 258.2 78.23 250.74 66.74 241.11C55.25 231.48 46.13 219.89 39.94 207.05C33.21 194.38 29.53 180.63 29.14 166.66C28.75 152.69 31.65 138.79 37.66 125.85C42.89 112.93 51.04 101.06 61.62 90.96C72.2 80.86 84.99 72.72 99.22 67.05C117.46 59.88 137.45 56.86 157.37 58.25C176.89 59.29 195.77 64.81 212.1 74.25L98.08 250.45C112.32 257.09 128.04 260.91 144.14 261.65ZM198.41 77.25C184.38 70.59 168.76 66.89 152.81 66.45C135.88 65.75 119.01 68.56 103.56 74.65C90.01 79.67 77.79 87.06 67.63 96.39C57.47 105.71 49.6 116.76 44.5 128.85C38.98 140.62 36.25 153.25 36.49 165.97C36.72 178.7 39.91 191.24 45.86 202.85C50.26 211.89 56.26 220.26 63.65 227.65C70.72 234.91 79.21 241.01 88.73 245.65L198.41 77.25Z" fill="#EC2127" fill-opacity="1.000000" fill-rule="nonzero"/>
	<path id="Vector" d="M147.56 277.85C131.95 277.68 116.5 275.04 101.96 270.05C86.01 264.82 71.44 256.81 59.13 246.5C46.83 236.18 37.04 223.78 30.36 210.05C23.11 196.46 19.09 181.73 18.54 166.74C18 151.75 20.93 136.81 27.17 122.85C33.08 108.84 42.19 96.04 53.96 85.24C65.72 74.44 79.89 65.87 95.57 60.05C115.17 52.35 136.66 49.12 158.05 50.65C179.06 51.86 199.34 57.85 216.88 68.05L223.5 71.85L109.48 247.25C120.57 251.31 132.37 253.68 144.37 254.25C159.85 254.89 175.29 252.39 189.49 246.94C203.68 241.49 216.26 233.25 226.23 222.85C235.87 212.59 242.94 200.66 246.98 187.85L248.12 184.25L278 172.85L274.8 186.85C270.8 204.31 262.12 220.7 249.49 234.65C236.49 249.23 219.46 260.65 200.01 267.85C183.53 274.4 165.66 277.81 147.56 277.85ZM147.56 73.85C133.28 73.84 119.15 76.43 106.06 81.45C93.67 86.13 82.52 93.01 73.3 101.65C64.08 110.28 56.99 120.5 52.48 131.65C47.24 142.6 44.63 154.38 44.83 166.25C45.03 178.13 48.02 189.84 53.62 200.65C57.79 208.73 63.32 216.21 70.03 222.85C74.66 227.55 79.94 231.72 85.77 235.25L185.42 80.45C174.46 76.53 162.81 74.29 150.98 73.85L147.56 73.85Z" fill="#EC2127" fill-opacity="1.000000" fill-rule="nonzero"/>
</svg>
