<svg width="27" height="28" viewBox="0 0 27 28" fill="none" xmlns="http://www.w3.org/2000/svg">
<path d="M13.5036 0.54541C6.0922 0.54541 0.0283203 6.59582 0.0283203 14.0477C0.0283203 20.7854 4.96028 26.3775 11.4015 27.3882V17.9555H7.97874V14.0477H11.4015V11.0696C11.4015 7.68732 13.4093 5.82772 16.4951 5.82772C17.964 5.82772 19.5001 6.08375 19.5001 6.08375V9.41215H17.8022C16.1313 9.41215 15.6058 10.4498 15.6058 11.5143V14.0477H19.3519L18.7455 17.9555H15.6058V27.3882C18.7811 26.8867 21.6726 25.2665 23.7583 22.8201C25.8438 20.3737 26.9861 17.2623 26.9789 14.0477C26.9789 6.59582 20.915 0.54541 13.5036 0.54541Z" fill="#7F929D"/>
</svg>
