<svg width="28" height="28" viewBox="0 0 28 28" fill="none" xmlns="http://www.w3.org/2000/svg">
<path d="M27.5312 8.46819C27.5161 7.34112 27.3052 6.22525 26.9076 5.1705C26.563 4.28083 26.0364 3.47284 25.3617 2.79818C24.6871 2.12351 23.8791 1.59699 22.9893 1.25227C21.9482 0.861423 20.8482 0.650087 19.7364 0.627257C18.3048 0.563268 17.8509 0.54541 14.2169 0.54541C10.5829 0.54541 10.1171 0.54541 8.69598 0.627257C7.58459 0.650255 6.48515 0.86159 5.44443 1.25227C4.55462 1.59675 3.74651 2.12319 3.07181 2.79789C2.39711 3.47258 1.87068 4.28069 1.5262 5.1705C1.13457 6.2109 0.923689 7.31059 0.902672 8.42205C0.838683 9.85512 0.819336 10.309 0.819336 13.943C0.819336 17.577 0.819336 18.0413 0.902672 19.4639C0.924994 20.5771 1.13482 21.6753 1.5262 22.7185C1.87126 23.608 2.39808 24.4158 3.073 25.0901C3.74792 25.7646 4.5561 26.2909 5.44591 26.6353C6.48379 27.0417 7.58341 27.2683 8.69746 27.3049C10.1305 27.3689 10.5844 27.3882 14.2184 27.3882C17.8525 27.3882 18.3181 27.3882 19.7393 27.3049C20.8512 27.283 21.9512 27.0721 22.9924 26.6813C23.8819 26.3362 24.6896 25.8095 25.3642 25.1349C26.0388 24.4603 26.5655 23.6525 26.9107 22.7631C27.302 21.7214 27.5118 20.6231 27.5341 19.5086C27.5982 18.077 27.6174 17.6232 27.6174 13.9876C27.6145 10.3536 27.6145 9.89232 27.5312 8.46819ZM14.208 20.8152C10.4073 20.8152 7.32839 17.7362 7.32839 13.9355C7.32839 10.1349 10.4073 7.05595 14.208 7.05595C16.0326 7.05595 17.7824 7.78077 19.0726 9.07094C20.3627 10.3611 21.0875 12.111 21.0875 13.9355C21.0875 15.7602 20.3627 17.5099 19.0726 18.8002C17.7824 20.0904 16.0326 20.8152 14.208 20.8152ZM21.3613 8.40568C21.1508 8.40588 20.942 8.36452 20.7473 8.28397C20.5525 8.20342 20.3756 8.08526 20.2266 7.93627C20.0776 7.78726 19.9594 7.61033 19.8789 7.41562C19.7984 7.2209 19.757 7.0122 19.7572 6.80149C19.7572 6.59091 19.7986 6.38242 19.8793 6.18787C19.9599 5.99333 20.078 5.81657 20.2269 5.66768C20.3758 5.51878 20.5525 5.40066 20.747 5.32009C20.9415 5.23951 21.1501 5.19803 21.3606 5.19803C21.5712 5.19803 21.7797 5.23951 21.9743 5.32009C22.1688 5.40066 22.3455 5.51878 22.4944 5.66768C22.6433 5.81657 22.7614 5.99333 22.8421 6.18787C22.9227 6.38242 22.9641 6.59091 22.9641 6.80149C22.9641 7.68841 22.2468 8.40568 21.3613 8.40568Z" fill="#7F929D"/>
</svg>
