<svg width="27.727295" height="27.727295" viewBox="0 0 27.7273 27.7273" fill="none" xmlns="http://www.w3.org/2000/svg" xmlns:xlink="http://www.w3.org/1999/xlink">
	<desc>
			Created with Pixso.
	</desc>
	<defs/>
	<path id="Vector" d="M27.21 7.92C27.19 6.79 26.98 5.68 26.58 4.62C26.24 3.73 25.71 2.92 25.04 2.25C24.36 1.57 23.56 1.05 22.67 0.7C21.63 0.31 20.53 0.1 19.41 0.08C17.98 0.01 17.53 0 13.89 0C10.26 0 9.79 0 8.37 0.08C7.26 0.1 6.16 0.31 5.12 0.7C4.23 1.05 3.42 1.57 2.75 2.25C2.07 2.92 1.55 3.73 1.2 4.62C0.81 5.66 0.6 6.76 0.58 7.87C0.52 9.3 0.5 9.76 0.5 13.39C0.5 17.03 0.5 17.49 0.58 18.91C0.6 20.03 0.81 21.13 1.2 22.17C1.55 23.06 2.08 23.87 2.75 24.54C3.42 25.21 4.23 25.74 5.12 26.09C6.16 26.49 7.26 26.72 8.37 26.75C9.81 26.82 10.26 26.84 13.9 26.84C17.53 26.84 18 26.84 19.42 26.75C20.53 26.73 21.63 26.52 22.67 26.13C23.56 25.79 24.37 25.26 25.04 24.58C25.72 23.91 26.24 23.1 26.59 22.21C26.98 21.17 27.19 20.07 27.21 18.96C27.28 17.53 27.29 17.07 27.29 13.44C27.29 9.8 27.29 9.34 27.21 7.92ZM13.88 20.27C10.08 20.27 7.01 17.19 7.01 13.39C7.01 9.58 10.08 6.51 13.88 6.51C15.71 6.51 17.46 7.23 18.75 8.52C20.04 9.81 20.76 11.56 20.76 13.39C20.76 15.21 20.04 16.96 18.75 18.25C17.46 19.54 15.71 20.27 13.88 20.27ZM21.04 7.86C20.83 7.86 20.62 7.81 20.42 7.73C20.23 7.65 20.05 7.54 19.9 7.39C19.75 7.24 19.64 7.06 19.56 6.87C19.48 6.67 19.43 6.46 19.43 6.25C19.43 6.04 19.48 5.83 19.56 5.64C19.64 5.44 19.75 5.27 19.9 5.12C20.05 4.97 20.23 4.85 20.42 4.77C20.62 4.69 20.83 4.65 21.04 4.65C21.25 4.65 21.46 4.69 21.65 4.77C21.85 4.85 22.02 4.97 22.17 5.12C22.32 5.27 22.44 5.44 22.52 5.64C22.6 5.83 22.64 6.04 22.64 6.25C22.64 7.14 21.92 7.86 21.04 7.86Z" fill="#7F929D" fill-opacity="1.000000" fill-rule="nonzero"/>
	<path id="Vector" d="M13.88 17.85C16.35 17.85 18.35 15.85 18.35 13.39C18.35 10.92 16.35 8.92 13.88 8.92C11.42 8.92 9.42 10.92 9.42 13.39C9.42 15.85 11.42 17.85 13.88 17.85Z" fill="#7F929D" fill-opacity="1.000000" fill-rule="nonzero"/>
</svg>
