<svg width="179" height="58" viewBox="0 0 179 58" fill="none" xmlns="http://www.w3.org/2000/svg">
<g clip-path="url(#clip0_253_85728)" filter="url(#filter0_d_253_85728)">
<path d="M27.6362 7.04942C24.6208 6.84075 21.5924 7.27315 18.8081 8.30991C15.8974 9.283 13.2932 10.851 11.2118 12.8837C9.31624 14.8627 7.91717 17.1696 7.10574 19.6544L5.09375 20.3747C5.8462 17.4591 7.38052 14.7429 9.5694 12.4516C11.8425 10.0622 14.746 8.1955 18.028 7.0134C20.6623 6.02467 23.4979 5.51489 26.3634 5.51489C29.2288 5.51489 32.0644 6.02467 34.6987 7.0134C37.3599 7.93486 39.7781 9.32394 41.8046 11.0952C43.8312 12.8665 45.4234 14.9826 46.4832 17.3135C47.6105 19.624 48.1917 22.1111 48.1917 24.6244C48.1917 27.1376 47.6105 29.6247 46.4832 31.9352C45.4239 34.2806 43.8282 36.4109 41.7943 38.1948C39.7605 39.9786 37.3317 41.3782 34.6577 42.3074C31.3538 43.5299 27.759 44.0245 24.1871 43.7479C20.6766 43.4838 17.3067 42.4158 14.4146 40.6507L35.8484 9.21027C33.3229 7.97449 30.5203 7.23705 27.6362 7.04942ZM16.9193 40.1465C19.4218 41.4243 22.239 42.1532 25.1315 42.2713C29.2893 42.5158 33.429 41.603 36.9606 39.663C40.4922 37.723 43.2356 34.8548 44.7997 31.4671C45.846 29.3404 46.3857 27.0486 46.3857 24.7324C46.3857 22.4162 45.846 20.1244 44.7997 17.9977C44.0417 16.3679 43.0031 14.8496 41.7202 13.496C40.4721 12.1646 38.972 11.0316 37.2856 10.1466L16.9193 40.1465Z" fill="black"/>
<path d="M26.2405 45.0805H24.0232C20.265 44.7892 16.6572 43.6476 13.5527 41.7672L12.3619 41.0469L33.5904 9.78655C31.6252 8.9881 29.5099 8.51206 27.3492 8.382C24.542 8.17969 21.7213 8.58791 19.137 9.57047C16.5943 10.4939 14.3414 11.9389 12.5672 13.7841C10.6902 15.5691 9.28779 17.6971 8.46111 20.0146L8.25581 20.6629L3 22.6436L3.61591 20.0866C4.44075 16.971 6.07032 14.0632 8.37899 11.5873C10.8015 9.00895 13.9211 7.00328 17.4535 5.75296C20.2709 4.70095 23.3016 4.15869 26.3637 4.15869C29.4258 4.15869 32.4565 4.70095 35.2739 5.75296C38.1239 6.72438 40.7145 8.20138 42.8836 10.0915C45.0526 11.9816 46.7535 14.2441 47.8797 16.7373C49.0989 19.2103 49.7279 21.8761 49.7279 24.5704C49.7279 27.2647 49.0989 29.9305 47.8797 32.4035C46.748 34.9024 45.0461 37.1721 42.8784 39.0733C40.7108 40.9746 38.123 42.4673 35.2739 43.4599C32.4171 44.5257 29.3451 45.0768 26.2405 45.0805ZM19.0548 39.4983C21.0121 40.2692 23.1132 40.7207 25.2551 40.8308C28.064 40.992 30.8768 40.5726 33.4673 39.6063C35.7286 38.8174 37.7791 37.6261 39.4893 36.1075C41.1996 34.5888 42.5325 32.7759 43.404 30.7829C44.388 28.8191 44.896 26.6974 44.896 24.5524C44.896 22.4073 44.388 20.2857 43.404 18.3219C42.7036 16.8238 41.7483 15.4274 40.5708 14.1803C39.7685 13.3131 38.8441 12.5387 37.8197 11.8754L19.0548 39.4983Z" fill="black"/>
<path d="M28.4171 50.7347C31.4501 50.8985 34.4823 50.4037 37.2452 49.2942C40.0041 48.2349 42.4382 46.6183 44.3487 44.5763C46.2662 42.5831 47.6672 40.2484 48.4548 37.7336L50.4258 36.9773C49.7905 39.8988 48.3843 42.6492 46.3197 45.0085C44.1445 47.4307 41.3245 49.3475 38.1075 50.5907C35.539 51.6165 32.7621 52.1801 29.941 52.2482C27.1199 52.3162 24.3119 51.8873 21.6831 50.9868C18.9997 50.1145 16.5481 48.7698 14.4791 47.0357C12.4101 45.3015 10.7675 43.2144 9.65218 40.9028C8.44082 38.6215 7.77912 36.1454 7.70847 33.6295C7.63782 31.1136 8.15973 28.612 9.24157 26.2811C10.1849 23.954 11.6526 21.8173 13.5573 19.9982C15.462 18.1792 17.7646 16.715 20.328 15.6929C23.6113 14.4023 27.2121 13.8573 30.7986 14.1082C34.3144 14.2955 37.7125 15.289 40.6532 16.9894L20.1227 48.7179C22.6863 49.9135 25.5175 50.602 28.4171 50.7347ZM38.1896 17.5296C35.6619 16.33 32.85 15.6641 29.9774 15.5848C26.9298 15.4592 23.8913 15.9651 21.1082 17.0614C18.6696 17.9649 16.4678 19.2971 14.6388 20.9756C12.8097 22.6542 11.3921 24.6437 10.4734 26.8213C9.47958 28.9404 8.98886 31.2151 9.03122 33.5062C9.07358 35.7973 9.64813 38.0568 10.7198 40.1465C11.5116 41.7742 12.5926 43.2815 13.9225 44.6123C15.1954 45.9205 16.7251 47.0183 18.4392 47.8536L38.1896 17.5296Z" fill="#EC2127"/>
<path d="M29.0324 53.6518C26.2209 53.6217 23.4387 53.1458 20.8202 52.2473C17.9487 51.3064 15.3252 49.8635 13.1089 48.0062C10.8925 46.149 9.12957 43.916 7.92706 41.443C6.62237 38.9967 5.89861 36.3431 5.79978 33.6437C5.70096 30.9443 6.22914 28.2555 7.3522 25.7408C8.41646 23.2181 10.0585 20.9133 12.177 18.9684C14.2956 17.0235 16.8458 15.4798 19.6705 14.4323C23.1984 13.0461 27.0683 12.4639 30.9212 12.7397C34.7033 12.9571 38.355 14.0372 41.515 15.8729L42.7057 16.5572L22.1752 48.1417C24.172 48.873 26.2968 49.2993 28.4576 49.4022C31.2449 49.517 34.0248 49.0666 36.5814 48.086C39.138 47.1054 41.4023 45.6209 43.1985 43.7479C44.9341 41.9001 46.2072 39.7528 46.935 37.4454L47.1403 36.7972L52.5193 34.7444L51.9445 37.2654C51.2229 40.4103 49.6609 43.3603 47.3867 45.8728C45.0448 48.4979 41.978 50.5556 38.4764 51.8511C35.5094 53.0314 32.2903 53.6452 29.0324 53.6518ZM29.0324 16.9173C26.4603 16.9154 23.9157 17.3814 21.5593 18.2859C19.3284 19.1293 17.32 20.3675 15.6597 21.9229C13.9993 23.4783 12.7228 25.3175 11.91 27.3254C10.9666 29.2972 10.4979 31.4186 10.5332 33.5567C10.5685 35.6948 11.1072 37.8034 12.1153 39.7503C12.8665 41.2054 13.8631 42.553 15.0717 43.7479C15.904 44.5949 16.8561 45.3452 17.9049 45.9808L35.8485 18.1058C33.8752 17.3996 31.7776 16.9976 29.6483 16.9173H29.0324Z" fill="#EC2127"/>
</g>
<g clip-path="url(#clip1_253_85728)">
<path d="M67.1055 27.1286V6.00977H80.1139V10.3804H71.9928V14.0533H78.938V18.5341H71.9928V22.7212H80.2242V27.1286H67.1055Z" fill="#ED1C24"/>
<path d="M84.082 27.1286V6.00977H89.1531V22.611H97.3477V27.1286H84.082Z" fill="#ED1C24"/>
<path d="M98.4502 27.1287L109.254 5.31201H109.548L120.094 27.0552H114.876L113.553 24.0068H104.918L103.521 27.0552L98.4502 27.1287ZM106.351 20.4441H111.936L109.18 13.833L106.351 20.4441Z" fill="#ED1C24"/>
<path d="M121.822 21.1787C122.853 21.8617 123.964 22.4167 125.129 22.8315C125.975 23.1545 126.87 23.3285 127.775 23.3457C128.529 23.3731 129.273 23.1679 129.906 22.758C130.143 22.593 130.337 22.3734 130.472 22.1176C130.606 21.8619 130.677 21.5777 130.678 21.2889C130.678 20.4074 129.759 19.4525 127.848 18.3506L127.15 17.9466L125.901 17.1386C124.689 16.4955 123.635 15.5924 122.814 14.4941C122.152 13.4927 121.806 12.3154 121.822 11.1151C121.787 10.3335 121.923 9.55373 122.221 8.83042C122.52 8.1071 122.973 7.45781 123.549 6.92808C124.968 5.81048 126.741 5.23727 128.547 5.31203C129.362 5.31427 130.174 5.40042 130.972 5.56913C131.956 5.77656 132.925 6.04645 133.875 6.37716V11.3355C132.958 10.752 131.985 10.2599 130.972 9.86635C130.241 9.54197 129.456 9.3552 128.657 9.31543C128.057 9.29384 127.466 9.46084 126.966 9.7929C126.774 9.937 126.619 10.1262 126.517 10.344C126.414 10.5617 126.367 10.8013 126.378 11.0417C126.381 11.4102 126.496 11.7692 126.709 12.0701C127.011 12.4374 127.387 12.7376 127.812 12.9515L130.31 14.3105C131.903 15.074 133.317 16.1625 134.463 17.5059C135.201 18.5016 135.577 19.7197 135.528 20.9583C135.566 21.888 135.398 22.8145 135.036 23.6716C134.674 24.5287 134.127 25.2954 133.434 25.9167C131.887 27.2474 129.887 27.9314 127.848 27.8265C126.985 27.825 126.123 27.7389 125.276 27.5694C124.24 27.3947 123.22 27.1367 122.226 26.7981L121.822 21.1787Z" fill="#ED1C24"/>
<path d="M154.82 12.6578C154.014 11.8237 153.084 11.1177 152.064 10.5642C151.133 10.1285 150.117 9.90283 149.088 9.90313C148.27 9.88199 147.458 10.0348 146.704 10.3514C145.95 10.668 145.272 11.1412 144.715 11.7395C143.549 13.037 142.93 14.7346 142.988 16.4775C142.918 18.2046 143.525 19.8909 144.678 21.1787C145.243 21.7752 145.928 22.2443 146.689 22.5547C147.449 22.865 148.267 23.0095 149.088 22.9784C150.187 22.9717 151.273 22.7469 152.285 22.3173C153.452 21.8191 154.531 21.1371 155.482 20.2973L155.298 25.9534C154.389 26.5785 153.384 27.05 152.322 27.3491C151.238 27.679 150.11 27.8401 148.978 27.8266C147.728 27.8476 146.484 27.6487 145.303 27.2389C144.152 26.8626 143.081 26.2774 142.143 25.5127C140.81 24.4785 139.74 23.1447 139.019 21.6195C138.291 20.0434 137.927 18.3236 137.954 16.5877C137.94 15.0838 138.201 13.5902 138.725 12.1803C139.262 10.8143 140.061 9.56653 141.077 8.50745C142.123 7.46579 143.375 6.65282 144.752 6.1201C146.061 5.59682 147.457 5.32278 148.867 5.31208C150.024 5.30078 151.176 5.4617 152.285 5.78955C153.355 6.14713 154.37 6.6541 155.298 7.29541L154.82 12.6578Z" fill="#ED1C24"/>
<path d="M157.43 16.5875C157.432 15.0817 157.706 13.5887 158.238 12.1801C158.788 10.8124 159.599 9.56485 160.627 8.50722C162.127 6.99726 164.042 5.96748 166.13 5.5489C168.217 5.13031 170.382 5.34186 172.349 6.15661C173.664 6.70402 174.853 7.51673 175.84 8.54395C176.877 9.58684 177.678 10.8391 178.192 12.2168C178.727 13.6245 179.001 15.1181 179 16.6242C179.007 17.8696 178.821 19.1085 178.449 20.297C178.092 21.4519 177.532 22.5339 176.795 23.4924C175.843 24.8352 174.583 25.9308 173.121 26.6878C171.657 27.4469 170.03 27.8377 168.38 27.8264C166.968 27.8392 165.567 27.5643 164.265 27.0183C162.955 26.4443 161.769 25.621 160.774 24.5943C159.746 23.5366 158.935 22.2891 158.385 20.9214C157.803 19.5476 157.479 18.0785 157.43 16.5875ZM162.648 16.5875C162.584 18.2611 163.147 19.8984 164.228 21.1785C164.718 21.7584 165.328 22.2244 166.017 22.5441C166.706 22.8638 167.456 23.0294 168.215 23.0294C168.974 23.0294 169.724 22.8638 170.413 22.5441C171.102 22.2244 171.712 21.7584 172.202 21.1785C173.231 19.8759 173.753 18.2451 173.672 16.5875C173.742 14.9018 173.178 13.2511 172.092 11.9597C171.616 11.3662 171.012 10.889 170.324 10.5644C169.636 10.2398 168.884 10.0763 168.123 10.0865C167.358 10.0815 166.602 10.247 165.909 10.571C165.216 10.8951 164.604 11.3695 164.118 11.9597C163.071 13.267 162.547 14.9161 162.648 16.5875Z" fill="#ED1C24"/>
<path d="M67.1055 43.9502V31.4258H76.4392V33.0786H68.9428V36.7514H75.9982V38.3674H68.9428V42.481H76.2922V44.1338L67.1055 43.9502Z" fill="black"/>
<path d="M82.5391 43.9502L87.3529 37.3023L83.0903 31.4258H85.4788L88.4553 35.7965L91.6156 31.4258H93.5999L89.4108 37.2289L94.2614 43.9502H92.0198L88.3451 38.7347L84.6704 43.9502H82.5391Z" fill="black"/>
<path d="M102.015 38.8083V43.9503H100.178V31.4259H104.587C105.825 31.3453 107.054 31.6815 108.078 32.3809C108.476 32.692 108.791 33.0957 108.996 33.5567C109.201 34.0178 109.29 34.522 109.254 35.0253C109.291 35.559 109.199 36.0937 108.989 36.5853C108.778 37.077 108.453 37.5116 108.042 37.8534C106.957 38.5717 105.664 38.9078 104.367 38.8083H102.015ZM102.015 37.2657H103.632C104.671 37.3324 105.713 37.1693 106.682 36.7883C106.957 36.6041 107.18 36.3515 107.328 36.0553C107.476 35.7591 107.545 35.4294 107.527 35.0988C107.562 34.7791 107.508 34.4562 107.372 34.1649C107.236 33.8736 107.023 33.625 106.755 33.446C105.772 33.072 104.718 32.9215 103.669 33.0052H102.015V37.2657Z" fill="black"/>
<path d="M120.903 31.4261C122.118 31.3448 123.324 31.6818 124.321 32.381C124.715 32.7094 125.024 33.1278 125.223 33.6009C125.421 34.074 125.502 34.5878 125.46 35.0989C125.489 35.5531 125.426 36.0085 125.274 36.4377C125.123 36.8668 124.886 37.261 124.578 37.5965C123.824 38.2578 122.862 38.6346 121.859 38.6616L126.673 43.9505H124.358L119.617 38.6616H118.552V43.9505H116.751V31.4261H120.903ZM118.552 37.119H119.985C120.985 37.1919 121.989 37.0413 122.924 36.6782C123.198 36.513 123.42 36.2734 123.563 35.9873C123.706 35.7012 123.765 35.3804 123.733 35.0622C123.764 34.7519 123.713 34.4389 123.584 34.155C123.455 33.8711 123.253 33.6265 122.998 33.4461C122.039 33.0746 121.01 32.924 119.985 33.0054H118.552V37.119Z" fill="black"/>
<path d="M133.25 43.9502V31.4258H142.437V33.0786H135.087V36.7514H142.106V38.3674H134.977V42.481H142.327V44.1338L133.25 43.9502Z" fill="black"/>
<path d="M149.271 41.0121L150.778 40.4612C150.903 41.0574 151.197 41.6054 151.623 42.0405C152.091 42.3847 152.659 42.5654 153.24 42.5547C153.513 42.5762 153.787 42.5391 154.044 42.4457C154.301 42.3523 154.535 42.2049 154.73 42.0134C154.925 41.8219 155.076 41.5908 155.174 41.3357C155.272 41.0806 155.315 40.8074 155.298 40.5347C155.315 40.0775 155.157 39.631 154.857 39.2859C154.272 38.7861 153.599 38.3999 152.873 38.1473C151.92 37.8341 151.053 37.3063 150.337 36.6047C149.841 36.0221 149.579 35.276 149.602 34.5112C149.59 34.0658 149.672 33.6229 149.843 33.2114C150.014 32.8 150.27 32.4293 150.594 32.1238C150.921 31.7692 151.319 31.4876 151.763 31.2977C152.206 31.1078 152.684 31.0138 153.167 31.022C153.823 31.011 154.47 31.1759 155.041 31.4995C155.676 31.8417 156.218 32.3333 156.621 32.9319L155.298 34.2541C155.018 33.7989 154.642 33.4104 154.196 33.1155C153.857 32.8904 153.463 32.7633 153.056 32.7482C152.599 32.7311 152.152 32.8887 151.807 33.189C151.549 33.4837 151.406 33.8622 151.406 34.2541C151.406 34.646 151.549 35.0245 151.807 35.3192C152.071 35.6432 152.412 35.8957 152.799 36.0538L154.232 36.7149L155.224 37.1556C155.847 37.5176 156.376 38.0209 156.768 38.6248C157.066 39.2024 157.206 39.8488 157.172 40.4979C157.185 40.9849 157.1 41.4695 156.923 41.9235C156.747 42.3775 156.482 42.7918 156.143 43.1424C155.787 43.4963 155.362 43.7734 154.894 43.9566C154.426 44.1397 153.926 44.2252 153.424 44.2075C152.46 44.2374 151.514 43.9395 150.741 43.3627C149.987 42.7791 149.466 41.9456 149.271 41.0121Z" fill="black"/>
<path d="M163.492 41.012L165.036 40.4611C165.166 41.0717 165.488 41.6249 165.954 42.0404C166.422 42.3846 166.99 42.5653 167.571 42.5546C167.841 42.5707 168.111 42.5294 168.363 42.4336C168.616 42.3377 168.845 42.1895 169.036 41.9986C169.227 41.8077 169.375 41.5786 169.471 41.3262C169.567 41.0738 169.608 40.804 169.592 40.5346C169.609 40.0774 169.452 39.6309 169.151 39.2858C168.567 38.786 167.894 38.3998 167.167 38.1472C166.219 37.8249 165.353 37.2983 164.631 36.6046C164.135 36.022 163.873 35.2759 163.896 34.5111C163.884 34.0657 163.966 33.6228 164.137 33.2113C164.308 32.7999 164.564 32.4292 164.889 32.1238C165.207 31.7783 165.593 31.5021 166.023 31.3125C166.453 31.1229 166.917 31.024 167.387 31.0219C168.056 31.0043 168.717 31.1694 169.298 31.4994C169.915 31.8531 170.443 32.343 170.842 32.9318L169.666 34.1071C169.366 33.6675 168.993 33.2824 168.563 32.9685C168.209 32.747 167.804 32.6204 167.387 32.6012C166.93 32.5841 166.483 32.7417 166.138 33.042C165.905 33.3484 165.78 33.7225 165.78 34.1071C165.78 34.4917 165.905 34.8657 166.138 35.1722C166.402 35.4962 166.743 35.7487 167.13 35.9068L168.563 36.5679L169.555 37.0086C170.178 37.3706 170.707 37.8739 171.099 38.4778C171.397 39.0554 171.537 39.7018 171.503 40.3509C171.516 40.8379 171.431 41.3225 171.254 41.7765C171.078 42.2305 170.813 42.6448 170.474 42.9954C170.118 43.3492 169.693 43.6263 169.225 43.8095C168.757 43.9927 168.257 44.0781 167.755 44.0605C166.792 44.0846 165.848 43.7874 165.072 43.2157C164.305 42.6872 163.746 41.9079 163.492 41.012Z" fill="black"/>
</g>
<path d="M67.2986 50.912V50.0309H71.4497V50.912H69.9023V55.0853H68.846V50.912H67.2986ZM71.7199 55.0853V51.2945H72.7392V51.9559H72.7787C72.8478 51.7206 72.9638 51.5429 73.1267 51.4228C73.2896 51.3011 73.4772 51.2402 73.6894 51.2402C73.742 51.2402 73.7988 51.2435 73.8597 51.2501C73.9206 51.2567 73.974 51.2657 74.0201 51.2772V52.2101C73.9707 52.1953 73.9025 52.1822 73.8153 52.1706C73.7281 52.1591 73.6483 52.1534 73.5759 52.1534C73.4212 52.1534 73.283 52.1871 73.1612 52.2546C73.0411 52.3204 72.9457 52.4125 72.875 52.531C72.8059 52.6494 72.7713 52.786 72.7713 52.9406V55.0853H71.7199ZM75.5361 55.1569C75.2942 55.1569 75.0787 55.1149 74.8895 55.031C74.7002 54.9455 74.5505 54.8196 74.4403 54.6534C74.3317 54.4856 74.2774 54.2767 74.2774 54.0266C74.2774 53.816 74.3161 53.6391 74.3934 53.4959C74.4707 53.3528 74.576 53.2376 74.7093 53.1504C74.8426 53.0632 74.9939 52.9974 75.1634 52.953C75.3345 52.9086 75.5139 52.8773 75.7014 52.8592C75.9219 52.8362 76.0996 52.8148 76.2345 52.795C76.3694 52.7736 76.4673 52.7424 76.5282 52.7013C76.5891 52.6601 76.6195 52.5992 76.6195 52.5186V52.5038C76.6195 52.3475 76.5702 52.2266 76.4714 52.141C76.3744 52.0555 76.2362 52.0127 76.0568 52.0127C75.8676 52.0127 75.7171 52.0546 75.6052 52.1386C75.4933 52.2208 75.4192 52.3245 75.3831 52.4495L74.4107 52.3705C74.46 52.1402 74.5571 51.9411 74.7019 51.7733C74.8467 51.6038 75.0334 51.4738 75.2621 51.3834C75.4925 51.2912 75.759 51.2451 76.0617 51.2451C76.2723 51.2451 76.4739 51.2698 76.6664 51.3192C76.8606 51.3685 77.0325 51.4451 77.1822 51.5487C77.3336 51.6524 77.4529 51.7856 77.5401 51.9485C77.6273 52.1098 77.6709 52.3031 77.6709 52.5285V55.0853H76.6738V54.5596H76.6442C76.5833 54.6781 76.5019 54.7826 76.3999 54.8731C76.2979 54.9619 76.1753 55.0319 76.0321 55.0829C75.889 55.1322 75.7236 55.1569 75.5361 55.1569ZM75.8372 54.4313C75.9918 54.4313 76.1284 54.4009 76.2468 54.34C76.3653 54.2775 76.4583 54.1936 76.5257 54.0883C76.5932 53.983 76.6269 53.8637 76.6269 53.7304V53.3281C76.594 53.3495 76.5488 53.3693 76.4912 53.3874C76.4352 53.4038 76.3719 53.4194 76.3011 53.4342C76.2304 53.4474 76.1596 53.4597 76.0889 53.4713C76.0181 53.4811 75.954 53.4902 75.8964 53.4984C75.773 53.5165 75.6652 53.5453 75.5731 53.5848C75.4809 53.6243 75.4094 53.6778 75.3584 53.7452C75.3074 53.811 75.2819 53.8933 75.2819 53.992C75.2819 54.1352 75.3337 54.2446 75.4373 54.3203C75.5426 54.3943 75.6759 54.4313 75.8372 54.4313ZM79.5379 52.8938V55.0853H78.4865V51.2945H79.4885V51.9633H79.533C79.6169 51.7429 79.7576 51.5685 79.955 51.4401C80.1524 51.3101 80.3918 51.2451 80.6732 51.2451C80.9364 51.2451 81.1659 51.3027 81.3617 51.4179C81.5575 51.5331 81.7097 51.6976 81.8183 51.9115C81.9269 52.1237 81.9812 52.3771 81.9812 52.6716V55.0853H80.9298V52.8592C80.9315 52.6272 80.8723 52.4462 80.7521 52.3163C80.632 52.1846 80.4667 52.1188 80.2561 52.1188C80.1146 52.1188 79.9895 52.1493 79.881 52.2101C79.774 52.271 79.6901 52.3599 79.6292 52.4767C79.57 52.5918 79.5395 52.7309 79.5379 52.8938ZM85.9639 52.3755L85.0014 52.4347C84.9849 52.3524 84.9496 52.2784 84.8953 52.2126C84.841 52.1451 84.7694 52.0917 84.6806 52.0522C84.5934 52.011 84.4889 51.9905 84.3671 51.9905C84.2042 51.9905 84.0669 52.025 83.955 52.0941C83.8431 52.1616 83.7872 52.2521 83.7872 52.3656C83.7872 52.4561 83.8233 52.5326 83.8957 52.5951C83.9681 52.6577 84.0924 52.7078 84.2684 52.7457L84.9545 52.8839C85.3231 52.9596 85.5978 53.0813 85.7788 53.2491C85.9598 53.417 86.0503 53.6374 86.0503 53.9106C86.0503 54.159 85.9771 54.377 85.8306 54.5646C85.6859 54.7521 85.4868 54.8986 85.2334 55.0039C84.9817 55.1075 84.6913 55.1594 84.3622 55.1594C83.8604 55.1594 83.4606 55.0549 83.1628 54.8459C82.8666 54.6353 82.693 54.349 82.642 53.9871L83.6761 53.9328C83.7074 54.0858 83.783 54.2026 83.9031 54.2832C84.0233 54.3622 84.1771 54.4017 84.3647 54.4017C84.5489 54.4017 84.697 54.3663 84.8089 54.2956C84.9224 54.2232 84.98 54.1302 84.9817 54.0167C84.98 53.9213 84.9397 53.8431 84.8607 53.7822C84.7817 53.7197 84.66 53.672 84.4955 53.6391L83.839 53.5083C83.4688 53.4342 83.1932 53.3059 83.0122 53.1233C82.8329 52.9406 82.7432 52.7078 82.7432 52.4248C82.7432 52.1813 82.809 51.9716 82.9406 51.7955C83.0739 51.6195 83.2606 51.4837 83.5009 51.3883C83.7427 51.2929 84.0257 51.2451 84.3499 51.2451C84.8286 51.2451 85.2054 51.3463 85.4802 51.5487C85.7566 51.7511 85.9178 52.0267 85.9639 52.3755ZM86.7123 56.5069V51.2945H87.7489V51.9312H87.7958C87.8418 51.8292 87.9085 51.7256 87.9957 51.6203C88.0845 51.5133 88.1997 51.4245 88.3412 51.3537C88.4843 51.2813 88.662 51.2451 88.8743 51.2451C89.1507 51.2451 89.4057 51.3175 89.6394 51.4623C89.873 51.6055 90.0597 51.8218 90.1996 52.1114C90.3394 52.3993 90.4094 52.7605 90.4094 53.1949C90.4094 53.6177 90.3411 53.9747 90.2045 54.266C90.0696 54.5555 89.8853 54.7752 89.6517 54.9249C89.4197 55.073 89.1597 55.147 88.8718 55.147C88.6678 55.147 88.4942 55.1133 88.3511 55.0458C88.2096 54.9784 88.0936 54.8936 88.0031 54.7916C87.9126 54.688 87.8435 54.5835 87.7958 54.4782H87.7637V56.5069H86.7123ZM87.7415 53.1899C87.7415 53.4153 87.7727 53.6119 87.8353 53.7798C87.8978 53.9476 87.9883 54.0784 88.1067 54.1722C88.2252 54.2643 88.3692 54.3104 88.5386 54.3104C88.7097 54.3104 88.8545 54.2635 88.973 54.1697C89.0915 54.0743 89.1811 53.9427 89.242 53.7748C89.3045 53.6054 89.3358 53.4104 89.3358 53.1899C89.3358 52.9711 89.3054 52.7786 89.2445 52.6124C89.1836 52.4462 89.0939 52.3163 88.9755 52.2225C88.857 52.1287 88.7114 52.0818 88.5386 52.0818C88.3675 52.0818 88.2227 52.127 88.1043 52.2175C87.9875 52.308 87.8978 52.4364 87.8353 52.6025C87.7727 52.7687 87.7415 52.9645 87.7415 53.1899ZM92.8231 55.1594C92.4397 55.1594 92.1082 55.0779 91.8285 54.915C91.5504 54.7505 91.3357 54.5218 91.1843 54.2289C91.0329 53.9344 90.9573 53.593 90.9573 53.2047C90.9573 52.8131 91.0329 52.4709 91.1843 52.178C91.3357 51.8835 91.5504 51.6548 91.8285 51.4919C92.1082 51.3274 92.4397 51.2451 92.8231 51.2451C93.2064 51.2451 93.5371 51.3274 93.8152 51.4919C94.0949 51.6548 94.3104 51.8835 94.4618 52.178C94.6132 52.4709 94.6888 52.8131 94.6888 53.2047C94.6888 53.593 94.6132 53.9344 94.4618 54.2289C94.3104 54.5218 94.0949 54.7505 93.8152 54.915C93.5371 55.0779 93.2064 55.1594 92.8231 55.1594ZM92.828 54.3449C93.0024 54.3449 93.148 54.2956 93.2648 54.1969C93.3816 54.0965 93.4697 53.9599 93.5289 53.7872C93.5898 53.6144 93.6202 53.4178 93.6202 53.1973C93.6202 52.9768 93.5898 52.7802 93.5289 52.6075C93.4697 52.4347 93.3816 52.2982 93.2648 52.1978C93.148 52.0974 93.0024 52.0472 92.828 52.0472C92.6519 52.0472 92.5039 52.0974 92.3838 52.1978C92.2653 52.2982 92.1756 52.4347 92.1147 52.6075C92.0555 52.7802 92.0259 52.9768 92.0259 53.1973C92.0259 53.4178 92.0555 53.6144 92.1147 53.7872C92.1756 53.9599 92.2653 54.0965 92.3838 54.1969C92.5039 54.2956 92.6519 54.3449 92.828 54.3449ZM95.3725 55.0853V51.2945H96.3918V51.9559H96.4312C96.5003 51.7206 96.6163 51.5429 96.7792 51.4228C96.9421 51.3011 97.1297 51.2402 97.3419 51.2402C97.3946 51.2402 97.4513 51.2435 97.5122 51.2501C97.5731 51.2567 97.6266 51.2657 97.6726 51.2772V52.2101C97.6233 52.1953 97.555 52.1822 97.4678 52.1706C97.3806 52.1591 97.3008 52.1534 97.2284 52.1534C97.0737 52.1534 96.9355 52.1871 96.8138 52.2546C96.6937 52.3204 96.5982 52.4125 96.5275 52.531C96.4584 52.6494 96.4238 52.786 96.4238 52.9406V55.0853H95.3725ZM100.423 51.2945V52.0843H98.1397V51.2945H100.423ZM98.658 50.3863H99.7093V53.9204C99.7093 54.0175 99.7242 54.0932 99.7538 54.1475C99.7834 54.2001 99.8245 54.2372 99.8772 54.2586C99.9315 54.2799 99.994 54.2906 100.065 54.2906C100.114 54.2906 100.163 54.2865 100.213 54.2783C100.262 54.2684 100.3 54.261 100.326 54.2561L100.492 55.0384C100.439 55.0549 100.365 55.0738 100.27 55.0952C100.174 55.1182 100.058 55.1322 99.9216 55.1372C99.6682 55.147 99.4461 55.1133 99.2552 55.036C99.066 54.9586 98.9188 54.8385 98.8135 54.6756C98.7082 54.5128 98.6563 54.3071 98.658 54.0586V50.3863ZM104.266 55.1594C103.917 55.1594 103.616 55.0968 103.363 54.9718C103.109 54.8468 102.914 54.6773 102.778 54.4634C102.643 54.2479 102.575 54.0076 102.575 53.7427C102.575 53.5453 102.615 53.3701 102.694 53.2171C102.773 53.064 102.883 52.9234 103.024 52.795C103.166 52.6651 103.33 52.5359 103.518 52.4076L104.498 51.7634C104.625 51.6828 104.717 51.5981 104.777 51.5092C104.836 51.4187 104.866 51.3208 104.866 51.2155C104.866 51.1152 104.825 51.0222 104.745 50.9366C104.664 50.8511 104.55 50.8091 104.402 50.8108C104.303 50.8108 104.217 50.833 104.145 50.8774C104.073 50.9202 104.016 50.977 103.975 51.0477C103.935 51.1168 103.915 51.1941 103.915 51.2797C103.915 51.385 103.945 51.4919 104.004 51.6005C104.063 51.7091 104.142 51.8243 104.241 51.9461C104.34 52.0662 104.448 52.1961 104.564 52.336L106.961 55.0853H105.865L103.866 52.8592C103.734 52.7095 103.603 52.5532 103.471 52.3903C103.341 52.2258 103.233 52.0514 103.145 51.8671C103.058 51.6812 103.015 51.4796 103.015 51.2624C103.015 51.0173 103.071 50.7968 103.185 50.601C103.3 50.4052 103.461 50.2505 103.669 50.137C103.876 50.0218 104.118 49.9643 104.394 49.9643C104.664 49.9643 104.897 50.0194 105.093 50.1296C105.29 50.2382 105.441 50.383 105.547 50.564C105.654 50.7433 105.707 50.9408 105.707 51.1563C105.707 51.3949 105.648 51.6112 105.529 51.8054C105.413 51.9979 105.248 52.1706 105.036 52.3237L104.004 53.0665C103.864 53.1685 103.761 53.273 103.693 53.38C103.627 53.4853 103.595 53.5864 103.595 53.6835C103.595 53.8036 103.624 53.9114 103.683 54.0068C103.743 54.1022 103.827 54.1779 103.935 54.2339C104.044 54.2882 104.171 54.3153 104.318 54.3153C104.495 54.3153 104.671 54.275 104.843 54.1944C105.018 54.1121 105.176 53.9961 105.317 53.8464C105.46 53.695 105.575 53.5157 105.66 53.3084C105.746 53.1011 105.789 52.8715 105.789 52.6198H106.66C106.66 52.9291 106.626 53.208 106.559 53.4565C106.491 53.7033 106.397 53.9188 106.277 54.1031C106.157 54.2857 106.02 54.4354 105.865 54.5522C105.816 54.5835 105.768 54.6131 105.722 54.6411C105.676 54.6691 105.628 54.6987 105.579 54.7299C105.391 54.8813 105.181 54.9907 104.949 55.0582C104.719 55.1256 104.491 55.1594 104.266 55.1594ZM109.027 55.0853V50.0309H110.096V54.2043H112.263V55.0853H109.027ZM114.663 55.1594C114.28 55.1594 113.949 55.0779 113.669 54.915C113.391 54.7505 113.176 54.5218 113.025 54.2289C112.873 53.9344 112.798 53.593 112.798 53.2047C112.798 52.8131 112.873 52.4709 113.025 52.178C113.176 51.8835 113.391 51.6548 113.669 51.4919C113.949 51.3274 114.28 51.2451 114.663 51.2451C115.047 51.2451 115.378 51.3274 115.656 51.4919C115.935 51.6548 116.151 51.8835 116.302 52.178C116.454 52.4709 116.529 52.8131 116.529 53.2047C116.529 53.593 116.454 53.9344 116.302 54.2289C116.151 54.5218 115.935 54.7505 115.656 54.915C115.378 55.0779 115.047 55.1594 114.663 55.1594ZM114.668 54.3449C114.843 54.3449 114.988 54.2956 115.105 54.1969C115.222 54.0965 115.31 53.9599 115.369 53.7872C115.43 53.6144 115.461 53.4178 115.461 53.1973C115.461 52.9768 115.43 52.7802 115.369 52.6075C115.31 52.4347 115.222 52.2982 115.105 52.1978C114.988 52.0974 114.843 52.0472 114.668 52.0472C114.492 52.0472 114.344 52.0974 114.224 52.1978C114.106 52.2982 114.016 52.4347 113.955 52.6075C113.896 52.7802 113.866 52.9768 113.866 53.1973C113.866 53.4178 113.896 53.6144 113.955 53.7872C114.016 53.9599 114.106 54.0965 114.224 54.1969C114.344 54.2956 114.492 54.3449 114.668 54.3449ZM118.921 56.5859C118.58 56.5859 118.288 56.539 118.045 56.4452C117.803 56.353 117.61 56.2272 117.467 56.0676C117.324 55.908 117.231 55.7286 117.188 55.5296L118.161 55.3988C118.19 55.4744 118.237 55.5452 118.301 55.611C118.365 55.6768 118.45 55.7295 118.555 55.769C118.662 55.8101 118.792 55.8307 118.945 55.8307C119.174 55.8307 119.363 55.7747 119.511 55.6628C119.66 55.5526 119.735 55.3675 119.735 55.1075V54.414H119.691C119.645 54.5193 119.576 54.6189 119.483 54.7127C119.391 54.8064 119.273 54.883 119.128 54.9422C118.983 55.0014 118.811 55.031 118.61 55.031C118.325 55.031 118.066 54.9652 117.832 54.8336C117.6 54.7003 117.415 54.4971 117.277 54.224C117.141 53.9492 117.072 53.6021 117.072 53.1825C117.072 52.7531 117.142 52.3944 117.282 52.1065C117.422 51.8185 117.608 51.603 117.84 51.4599C118.073 51.3167 118.329 51.2451 118.607 51.2451C118.82 51.2451 118.997 51.2813 119.14 51.3537C119.284 51.4245 119.399 51.5133 119.486 51.6203C119.575 51.7256 119.643 51.8292 119.691 51.9312H119.73V51.2945H120.774V55.1223C120.774 55.4448 120.695 55.7147 120.537 55.9318C120.379 56.149 120.16 56.3119 119.881 56.4205C119.603 56.5307 119.283 56.5859 118.921 56.5859ZM118.943 54.2413C119.112 54.2413 119.256 54.1993 119.372 54.1154C119.491 54.0299 119.581 53.9081 119.644 53.7501C119.708 53.5906 119.74 53.3997 119.74 53.1776C119.74 52.9555 119.709 52.763 119.646 52.6001C119.584 52.4355 119.493 52.308 119.375 52.2175C119.256 52.127 119.112 52.0818 118.943 52.0818C118.77 52.0818 118.625 52.1287 118.506 52.2225C118.388 52.3146 118.298 52.4429 118.237 52.6075C118.176 52.772 118.146 52.962 118.146 53.1776C118.146 53.3964 118.176 53.5856 118.237 53.7452C118.3 53.9032 118.389 54.0257 118.506 54.1129C118.625 54.1985 118.77 54.2413 118.943 54.2413ZM121.611 55.0853V51.2945H122.662V55.0853H121.611ZM122.139 50.8058C121.983 50.8058 121.849 50.754 121.737 50.6504C121.626 50.5451 121.571 50.4192 121.571 50.2728C121.571 50.128 121.626 50.0038 121.737 49.9001C121.849 49.7948 121.983 49.7421 122.139 49.7421C122.295 49.7421 122.429 49.7948 122.539 49.9001C122.651 50.0038 122.707 50.128 122.707 50.2728C122.707 50.4192 122.651 50.5451 122.539 50.6504C122.429 50.754 122.295 50.8058 122.139 50.8058ZM126.658 52.3755L125.696 52.4347C125.68 52.3524 125.644 52.2784 125.59 52.2126C125.536 52.1451 125.464 52.0917 125.375 52.0522C125.288 52.011 125.183 51.9905 125.062 51.9905C124.899 51.9905 124.761 52.025 124.65 52.0941C124.538 52.1616 124.482 52.2521 124.482 52.3656C124.482 52.4561 124.518 52.5326 124.59 52.5951C124.663 52.6577 124.787 52.7078 124.963 52.7457L125.649 52.8839C126.018 52.9596 126.292 53.0813 126.473 53.2491C126.654 53.417 126.745 53.6374 126.745 53.9106C126.745 54.159 126.672 54.377 126.525 54.5646C126.38 54.7521 126.181 54.8986 125.928 55.0039C125.676 55.1075 125.386 55.1594 125.057 55.1594C124.555 55.1594 124.155 55.0549 123.857 54.8459C123.561 54.6353 123.388 54.349 123.337 53.9871L124.371 53.9328C124.402 54.0858 124.478 54.2026 124.598 54.2832C124.718 54.3622 124.872 54.4017 125.059 54.4017C125.244 54.4017 125.392 54.3663 125.503 54.2956C125.617 54.2232 125.675 54.1302 125.676 54.0167C125.675 53.9213 125.634 53.8431 125.555 53.7822C125.476 53.7197 125.355 53.672 125.19 53.6391L124.534 53.5083C124.163 53.4342 123.888 53.3059 123.707 53.1233C123.527 52.9406 123.438 52.7078 123.438 52.4248C123.438 52.1813 123.504 51.9716 123.635 51.7955C123.768 51.6195 123.955 51.4837 124.195 51.3883C124.437 51.2929 124.72 51.2451 125.044 51.2451C125.523 51.2451 125.9 51.3463 126.175 51.5487C126.451 51.7511 126.612 52.0267 126.658 52.3755ZM129.423 51.2945V52.0843H127.14V51.2945H129.423ZM127.659 50.3863H128.71V53.9204C128.71 54.0175 128.725 54.0932 128.754 54.1475C128.784 54.2001 128.825 54.2372 128.878 54.2586C128.932 54.2799 128.995 54.2906 129.065 54.2906C129.115 54.2906 129.164 54.2865 129.213 54.2783C129.263 54.2684 129.301 54.261 129.327 54.2561L129.492 55.0384C129.44 55.0549 129.366 55.0738 129.27 55.0952C129.175 55.1182 129.059 55.1322 128.922 55.1372C128.669 55.147 128.447 55.1133 128.256 55.036C128.067 54.9586 127.919 54.8385 127.814 54.6756C127.709 54.5128 127.657 54.3071 127.659 54.0586V50.3863ZM130.108 55.0853V51.2945H131.159V55.0853H130.108ZM130.636 50.8058C130.48 50.8058 130.346 50.754 130.234 50.6504C130.124 50.5451 130.069 50.4192 130.069 50.2728C130.069 50.128 130.124 50.0038 130.234 49.9001C130.346 49.7948 130.48 49.7421 130.636 49.7421C130.793 49.7421 130.926 49.7948 131.036 49.9001C131.148 50.0038 131.204 50.128 131.204 50.2728C131.204 50.4192 131.148 50.5451 131.036 50.6504C130.926 50.754 130.793 50.8058 130.636 50.8058ZM133.714 55.1594C133.326 55.1594 132.992 55.0771 132.712 54.9126C132.434 54.7464 132.22 54.516 132.071 54.2215C131.923 53.927 131.849 53.5881 131.849 53.2047C131.849 52.8164 131.924 52.4758 132.073 52.183C132.225 51.8885 132.439 51.6589 132.717 51.4944C132.995 51.3282 133.326 51.2451 133.71 51.2451C134.04 51.2451 134.33 51.3052 134.578 51.4253C134.827 51.5454 135.023 51.7141 135.168 51.9312C135.313 52.1484 135.393 52.4035 135.407 52.6963H134.415C134.387 52.5071 134.313 52.3549 134.193 52.2397C134.075 52.1229 133.919 52.0645 133.727 52.0645C133.564 52.0645 133.422 52.1089 133.3 52.1978C133.18 52.285 133.086 52.4125 133.018 52.5803C132.951 52.7481 132.917 52.9513 132.917 53.1899C132.917 53.4318 132.95 53.6374 133.016 53.8069C133.083 53.9764 133.178 54.1055 133.3 54.1944C133.422 54.2832 133.564 54.3277 133.727 54.3277C133.847 54.3277 133.955 54.303 134.05 54.2536C134.147 54.2043 134.227 54.1327 134.289 54.0389C134.354 53.9435 134.396 53.8291 134.415 53.6959H135.407C135.391 53.9854 135.312 54.2405 135.171 54.4609C135.031 54.6798 134.837 54.8509 134.591 54.9743C134.344 55.0977 134.052 55.1594 133.714 55.1594ZM139.235 52.3755L138.272 52.4347C138.256 52.3524 138.22 52.2784 138.166 52.2126C138.112 52.1451 138.04 52.0917 137.951 52.0522C137.864 52.011 137.76 51.9905 137.638 51.9905C137.475 51.9905 137.338 52.025 137.226 52.0941C137.114 52.1616 137.058 52.2521 137.058 52.3656C137.058 52.4561 137.094 52.5326 137.167 52.5951C137.239 52.6577 137.363 52.7078 137.539 52.7457L138.225 52.8839C138.594 52.9596 138.869 53.0813 139.05 53.2491C139.231 53.417 139.321 53.6374 139.321 53.9106C139.321 54.159 139.248 54.377 139.101 54.5646C138.957 54.7521 138.758 54.8986 138.504 55.0039C138.252 55.1075 137.962 55.1594 137.633 55.1594C137.131 55.1594 136.731 55.0549 136.434 54.8459C136.137 54.6353 135.964 54.349 135.913 53.9871L136.947 53.9328C136.978 54.0858 137.054 54.2026 137.174 54.2832C137.294 54.3622 137.448 54.4017 137.635 54.4017C137.82 54.4017 137.968 54.3663 138.08 54.2956C138.193 54.2232 138.251 54.1302 138.252 54.0167C138.251 53.9213 138.21 53.8431 138.132 53.7822C138.053 53.7197 137.931 53.672 137.766 53.6391L137.11 53.5083C136.74 53.4342 136.464 53.3059 136.283 53.1233C136.104 52.9406 136.014 52.7078 136.014 52.4248C136.014 52.1813 136.08 51.9716 136.211 51.7955C136.345 51.6195 136.531 51.4837 136.772 51.3883C137.014 51.2929 137.297 51.2451 137.621 51.2451C138.099 51.2451 138.476 51.3463 138.751 51.5487C139.027 51.7511 139.189 52.0267 139.235 52.3755Z" fill="black"/>
<defs>
<filter id="filter0_d_253_85728" x="0.464247" y="2.72345" width="54.591" height="54.591" filterUnits="userSpaceOnUse" color-interpolation-filters="sRGB">
<feFlood flood-opacity="0" result="BackgroundImageFix"/>
<feColorMatrix in="SourceAlpha" type="matrix" values="0 0 0 0 0 0 0 0 0 0 0 0 0 0 0 0 0 0 127 0" result="hardAlpha"/>
<feOffset dy="1.127"/>
<feGaussianBlur stdDeviation="1.26788"/>
<feComposite in2="hardAlpha" operator="out"/>
<feColorMatrix type="matrix" values="0 0 0 0 0 0 0 0 0 0 0 0 0 0 0 0 0 0 0.25 0"/>
<feBlend mode="normal" in2="BackgroundImageFix" result="effect1_dropShadow_253_85728"/>
<feBlend mode="normal" in="SourceGraphic" in2="effect1_dropShadow_253_85728" result="shape"/>
</filter>
<clipPath id="clip0_253_85728">
<rect width="49.5196" height="49.5196" fill="white" transform="translate(3 4.1322)"/>
</clipPath>
<clipPath id="clip1_253_85728">
<rect width="111.895" height="38.8954" fill="white" transform="translate(67.1055 5.31213)"/>
</clipPath>
</defs>
</svg>
