<svg width="56" height="56" viewBox="0 0 56 56" fill="none" xmlns="http://www.w3.org/2000/svg">
<g clip-path="url(#clip0_253_85730)" filter="url(#filter0_d_253_85730)">
<path d="M27.6362 5.04942C24.6208 4.84075 21.5924 5.27315 18.8081 6.30991C15.8974 7.283 13.2932 8.85099 11.2118 10.8837C9.31624 12.8627 7.91717 15.1696 7.10574 17.6544L5.09375 18.3747C5.8462 15.4591 7.38052 12.7429 9.5694 10.4516C11.8425 8.06221 14.746 6.1955 18.028 5.0134C20.6623 4.02467 23.4979 3.51489 26.3634 3.51489C29.2288 3.51489 32.0644 4.02467 34.6987 5.0134C37.3599 5.93486 39.7781 7.32394 41.8046 9.09523C43.8312 10.8665 45.4234 12.9826 46.4832 15.3135C47.6105 17.624 48.1917 20.1111 48.1917 22.6244C48.1917 25.1376 47.6105 27.6247 46.4832 29.9352C45.4239 32.2806 43.8282 34.4109 41.7943 36.1948C39.7605 37.9786 37.3317 39.3782 34.6577 40.3074C31.3538 41.5299 27.759 42.0245 24.1871 41.7479C20.6766 41.4838 17.3067 40.4158 14.4146 38.6507L35.8484 7.21027C33.3229 5.97449 30.5203 5.23705 27.6362 5.04942ZM16.9193 38.1465C19.4218 39.4243 22.239 40.1532 25.1315 40.2713C29.2893 40.5158 33.429 39.603 36.9606 37.663C40.4922 35.723 43.2356 32.8548 44.7997 29.4671C45.846 27.3404 46.3857 25.0486 46.3857 22.7324C46.3857 20.4162 45.846 18.1244 44.7997 15.9977C44.0417 14.3679 43.0031 12.8496 41.7202 11.496C40.4721 10.1646 38.972 9.0316 37.2856 8.14664L16.9193 38.1465Z" fill="black"/>
<path d="M26.2405 43.0805H24.0232C20.265 42.7892 16.6572 41.6476 13.5527 39.7672L12.3619 39.0469L33.5904 7.78655C31.6252 6.9881 29.5099 6.51206 27.3492 6.382C24.542 6.17969 21.7213 6.58791 19.137 7.57047C16.5943 8.49395 14.3414 9.93893 12.5672 11.7841C10.6902 13.5691 9.28779 15.6971 8.46111 18.0146L8.25581 18.6629L3 20.6436L3.61591 18.0866C4.44075 14.971 6.07032 12.0632 8.37899 9.58726C10.8015 7.00895 13.9211 5.00328 17.4535 3.75296C20.2709 2.70095 23.3016 2.15869 26.3637 2.15869C29.4258 2.15869 32.4565 2.70095 35.2739 3.75296C38.1239 4.72438 40.7145 6.20138 42.8836 8.09147C45.0526 9.98156 46.7535 12.2441 47.8797 14.7373C49.0989 17.2103 49.7279 19.8761 49.7279 22.5704C49.7279 25.2647 49.0989 27.9305 47.8797 30.4035C46.748 32.9024 45.0461 35.1721 42.8784 37.0733C40.7108 38.9746 38.123 40.4673 35.2739 41.4599C32.4171 42.5257 29.3451 43.0768 26.2405 43.0805ZM19.0548 37.4983C21.0121 38.2692 23.1132 38.7207 25.2551 38.8308C28.064 38.992 30.8768 38.5726 33.4673 37.6063C35.7286 36.8174 37.7791 35.6261 39.4893 34.1075C41.1996 32.5888 42.5325 30.7759 43.404 28.7829C44.388 26.8191 44.896 24.6974 44.896 22.5524C44.896 20.4073 44.388 18.2857 43.404 16.3219C42.7036 14.8238 41.7483 13.4274 40.5708 12.1803C39.7685 11.3131 38.8441 10.5387 37.8197 9.87538L19.0548 37.4983Z" fill="black"/>
<path d="M28.4171 48.7347C31.4501 48.8985 34.4823 48.4037 37.2452 47.2942C40.0041 46.2349 42.4382 44.6183 44.3487 42.5763C46.2662 40.5831 47.6672 38.2484 48.4548 35.7336L50.4258 34.9773C49.7905 37.8988 48.3843 40.6492 46.3197 43.0085C44.1445 45.4307 41.3245 47.3475 38.1075 48.5907C35.539 49.6165 32.7621 50.1801 29.941 50.2482C27.1199 50.3162 24.3119 49.8873 21.6831 48.9868C18.9997 48.1145 16.5481 46.7698 14.4791 45.0357C12.4101 43.3015 10.7675 41.2144 9.65218 38.9028C8.44082 36.6215 7.77912 34.1454 7.70847 31.6295C7.63782 29.1136 8.15973 26.612 9.24157 24.2811C10.1849 21.954 11.6526 19.8173 13.5573 17.9982C15.462 16.1792 17.7646 14.715 20.328 13.6929C23.6113 12.4023 27.2121 11.8573 30.7986 12.1082C34.3144 12.2955 37.7125 13.289 40.6532 14.9894L20.1227 46.7179C22.6863 47.9135 25.5175 48.602 28.4171 48.7347ZM38.1896 15.5296C35.6619 14.33 32.85 13.6641 29.9774 13.5848C26.9298 13.4592 23.8913 13.9651 21.1082 15.0614C18.6696 15.9649 16.4678 17.2971 14.6388 18.9756C12.8097 20.6542 11.3921 22.6437 10.4734 24.8213C9.47958 26.9404 8.98886 29.2151 9.03122 31.5062C9.07358 33.7973 9.64813 36.0568 10.7198 38.1465C11.5116 39.7742 12.5926 41.2815 13.9225 42.6123C15.1954 43.9205 16.7251 45.0183 18.4392 45.8536L38.1896 15.5296Z" fill="#D61A22"/>
<path d="M29.0324 51.6518C26.2209 51.6217 23.4387 51.1458 20.8202 50.2473C17.9487 49.3064 15.3252 47.8635 13.1089 46.0062C10.8925 44.149 9.12957 41.916 7.92706 39.443C6.62237 36.9967 5.89861 34.3431 5.79978 31.6437C5.70096 28.9443 6.22914 26.2555 7.3522 23.7408C8.41646 21.2181 10.0585 18.9133 12.177 16.9684C14.2956 15.0235 16.8458 13.4798 19.6705 12.4323C23.1984 11.0461 27.0683 10.4639 30.9212 10.7397C34.7033 10.9571 38.355 12.0372 41.515 13.8729L42.7057 14.5572L22.1752 46.1417C24.172 46.873 26.2968 47.2993 28.4576 47.4022C31.2449 47.517 34.0248 47.0666 36.5814 46.086C39.138 45.1054 41.4023 43.6209 43.1985 41.7479C44.9341 39.9001 46.2072 37.7528 46.935 35.4454L47.1403 34.7972L52.5193 32.7444L51.9445 35.2654C51.2229 38.4103 49.6609 41.3603 47.3867 43.8728C45.0448 46.4979 41.978 48.5556 38.4764 49.8511C35.5094 51.0314 32.2903 51.6452 29.0324 51.6518ZM29.0324 14.9173C26.4603 14.9154 23.9157 15.3814 21.5593 16.2859C19.3284 17.1293 17.32 18.3675 15.6597 19.9229C13.9993 21.4783 12.7228 23.3175 11.91 25.3254C10.9666 27.2972 10.4979 29.4186 10.5332 31.5567C10.5685 33.6948 11.1072 35.8034 12.1153 37.7503C12.8665 39.2054 13.8631 40.553 15.0717 41.7479C15.904 42.5949 16.8561 43.3452 17.9049 43.9808L35.8485 16.1058C33.8752 15.3996 31.7776 14.9976 29.6483 14.9173H29.0324Z" fill="#D61A22"/>
</g>
<defs>
<filter id="filter0_d_253_85730" x="0.464247" y="0.723451" width="54.591" height="54.591" filterUnits="userSpaceOnUse" color-interpolation-filters="sRGB">
<feFlood flood-opacity="0" result="BackgroundImageFix"/>
<feColorMatrix in="SourceAlpha" type="matrix" values="0 0 0 0 0 0 0 0 0 0 0 0 0 0 0 0 0 0 127 0" result="hardAlpha"/>
<feOffset dy="1.127"/>
<feGaussianBlur stdDeviation="1.26788"/>
<feComposite in2="hardAlpha" operator="out"/>
<feColorMatrix type="matrix" values="0 0 0 0 0 0 0 0 0 0 0 0 0 0 0 0 0 0 0.25 0"/>
<feBlend mode="normal" in2="BackgroundImageFix" result="effect1_dropShadow_253_85730"/>
<feBlend mode="normal" in="SourceGraphic" in2="effect1_dropShadow_253_85730" result="shape"/>
</filter>
<clipPath id="clip0_253_85730">
<rect width="49.5196" height="49.5196" fill="white" transform="translate(3 2.1322)"/>
</clipPath>
</defs>
</svg>
