<svg width="112" height="40" viewBox="0 0 112 40" fill="none" xmlns="http://www.w3.org/2000/svg">
<g clip-path="url(#clip0_253_85735)">
<path d="M0.105469 22.1286V1.00977H13.1139V5.38045H4.99282V9.05329H11.938V13.5341H4.99282V17.7212H13.2242V22.1286H0.105469Z" fill="#D61A22"/>
<path d="M17.0825 22.1286V1.00977H22.1536V17.611H30.3482V22.1286H17.0825Z" fill="#D61A22"/>
<path d="M31.4502 22.1287L42.2538 0.312012H42.5478L53.0942 22.0552H47.8761L46.5532 19.0068H37.9177L36.5213 22.0552L31.4502 22.1287ZM39.3508 15.4441H44.9363L42.1803 8.833L39.3508 15.4441Z" fill="#D61A22"/>
<path d="M54.8218 16.1787C55.8531 16.8617 56.9636 17.4167 58.129 17.8315C58.9746 18.1545 59.8698 18.3285 60.7748 18.3457C61.5288 18.3731 62.2729 18.1679 62.9062 17.758C63.1433 17.593 63.3372 17.3734 63.4715 17.1176C63.6058 16.8619 63.6766 16.5777 63.6778 16.2889C63.6778 15.4074 62.7592 14.4525 60.8483 13.3506L60.1501 12.9466L58.9007 12.1386C57.6892 11.4955 56.6351 10.5924 55.814 9.49413C55.1518 8.49269 54.8061 7.3154 54.8218 6.11512C54.7867 5.33353 54.9231 4.55373 55.2214 3.83042C55.5198 3.1071 55.9729 2.45781 56.5489 1.92808C57.9684 0.810481 59.7411 0.237266 61.5465 0.312032C62.3616 0.314267 63.1744 0.400422 63.9718 0.569131C64.9557 0.776557 65.9253 1.04645 66.8748 1.37716V6.33549C65.9576 5.75199 64.9853 5.25992 63.9718 4.86635C63.2406 4.54197 62.4558 4.3552 61.6568 4.31543C61.0572 4.29384 60.466 4.46084 59.9664 4.7929C59.7736 4.937 59.6191 5.12624 59.5166 5.34398C59.4141 5.56172 59.3666 5.8013 59.3784 6.04166C59.3807 6.41022 59.4962 6.76919 59.7092 7.07006C60.0112 7.43737 60.3867 7.73761 60.8116 7.95154L63.3104 9.31049C64.9026 10.074 66.3172 11.1625 67.4628 12.5059C68.2015 13.5016 68.5775 14.7197 68.5285 15.9583C68.5662 16.888 68.398 17.8145 68.0359 18.6716C67.6738 19.5287 67.1268 20.2954 66.4339 20.9167C64.8869 22.2474 62.8866 22.9314 60.8483 22.8265C59.9846 22.825 59.123 22.7389 58.276 22.5694C57.2403 22.3947 56.2203 22.1367 55.226 21.7981L54.8218 16.1787Z" fill="#D61A22"/>
<path d="M87.8204 7.65776C87.0138 6.82367 86.0844 6.11768 85.0644 5.56424C84.1327 5.12853 83.1165 4.90283 82.0879 4.90313C81.2704 4.88199 80.4578 5.03479 79.7039 5.3514C78.95 5.668 78.272 6.14118 77.715 6.73955C76.5493 8.037 75.9304 9.73462 75.9879 11.4775C75.9184 13.2046 76.5247 14.8909 77.6783 16.1787C78.2427 16.7752 78.9281 17.2443 79.6886 17.5547C80.449 17.865 81.2671 18.0095 82.0879 17.9784C83.1868 17.9717 84.2735 17.7469 85.2849 17.3173C86.4517 16.8191 87.5311 16.1371 88.4819 15.2973L88.2981 20.9534C87.3892 21.5785 86.3836 22.05 85.3216 22.3491C84.2381 22.679 83.1102 22.8401 81.9777 22.8266C80.7277 22.8476 79.4839 22.6487 78.303 22.2389C77.1523 21.8626 76.081 21.2774 75.1427 20.5127C73.8097 19.4785 72.7396 18.1447 72.0192 16.6195C71.2908 15.0434 70.9265 13.3236 70.9535 11.5877C70.9399 10.0838 71.2015 8.59016 71.7252 7.18029C72.2617 5.81429 73.0607 4.56653 74.077 3.50745C75.1232 2.46579 76.3746 1.65282 77.7517 1.1201C79.0613 0.596824 80.4571 0.322778 81.8674 0.31208C83.024 0.300779 84.1758 0.4617 85.2849 0.789549C86.3553 1.14713 87.3697 1.6541 88.2981 2.29541L87.8204 7.65776Z" fill="#D61A22"/>
<path d="M90.4297 11.5875C90.4319 10.0817 90.7058 8.58868 91.2381 7.18006C91.7881 5.81236 92.5994 4.56485 93.6267 3.50722C95.1268 1.99726 97.0425 0.967479 99.1299 0.548896C101.217 0.130314 103.382 0.341855 105.349 1.15661C106.664 1.70402 107.853 2.51673 108.84 3.54395C109.877 4.58684 110.678 5.83907 111.192 7.21679C111.727 8.62453 112.001 10.1181 112 11.6242C112.007 12.8696 111.821 14.1085 111.449 15.297C111.092 16.4519 110.532 17.5339 109.795 18.4924C108.843 19.8352 107.583 20.9308 106.121 21.6878C104.657 22.4469 103.03 22.8377 101.38 22.8264C99.9677 22.8392 98.5674 22.5643 97.2646 22.0183C95.9547 21.4443 94.769 20.621 93.7737 19.5943C92.7464 18.5366 91.9351 17.2891 91.3851 15.9214C90.8033 14.5476 90.4794 13.0785 90.4297 11.5875ZM95.6478 11.5875C95.5838 13.2611 96.1473 14.8984 97.2279 16.1785C97.7177 16.7584 98.3282 17.2244 99.0169 17.5441C99.7055 17.8638 100.456 18.0294 101.215 18.0294C101.974 18.0294 102.724 17.8638 103.413 17.5441C104.102 17.2244 104.712 16.7584 105.202 16.1785C106.231 14.8759 106.753 13.2451 106.672 11.5875C106.742 9.90182 106.178 8.25108 105.092 6.95969C104.616 6.36621 104.012 5.88899 103.324 5.56438C102.636 5.23977 101.884 5.07634 101.123 5.08654C100.358 5.08148 99.6016 5.24698 98.9087 5.57102C98.2158 5.89506 97.6039 6.36946 97.1176 6.95969C96.071 8.26703 95.5472 9.91615 95.6478 11.5875Z" fill="#D61A22"/>
<path d="M0.105469 38.9502V26.4258H9.43921V28.0786H1.94282V31.7514H8.99825V33.3674H1.94282V37.481H9.29222V39.1338L0.105469 38.9502Z" fill="black"/>
<path d="M15.5391 38.9502L20.3529 32.3023L16.0903 26.4258H18.4788L21.4553 30.7965L24.6156 26.4258H26.5999L22.4108 32.2289L27.2614 38.9502H25.0198L21.3451 33.7347L17.6704 38.9502H15.5391Z" fill="black"/>
<path d="M35.0151 33.8083V38.9503H33.1777V26.4259H37.5874C38.8251 26.3453 40.0542 26.6815 41.0783 27.3809C41.4757 27.692 41.7907 28.0957 41.9957 28.5567C42.2008 29.0178 42.2895 29.522 42.2542 30.0253C42.2905 30.559 42.1995 31.0937 41.9887 31.5853C41.7779 32.077 41.4533 32.5116 41.0416 32.8534C39.9572 33.5717 38.664 33.9078 37.3669 33.8083H35.0151ZM35.0151 32.2657H36.632C37.6714 32.3324 38.7127 32.1693 39.682 31.7883C39.9573 31.6041 40.18 31.3515 40.3282 31.0553C40.4763 30.7591 40.5449 30.4294 40.5271 30.0988C40.5615 29.7791 40.5078 29.4562 40.3718 29.1649C40.2357 28.8736 40.0226 28.625 39.7554 28.446C38.772 28.072 37.7176 27.9215 36.6687 28.0052H35.0151V32.2657Z" fill="black"/>
<path d="M53.9029 26.4261C55.1178 26.3448 56.3238 26.6818 57.3204 27.381C57.7146 27.7094 58.0238 28.1278 58.2221 28.6009C58.4204 29.074 58.5018 29.5878 58.4595 30.0989C58.4884 30.5531 58.4251 31.0085 58.2736 31.4377C58.122 31.8668 57.8853 32.261 57.5776 32.5965C56.8233 33.2578 55.8613 33.6346 54.8583 33.6616L59.6722 38.9505H57.3571L52.6168 33.6616H51.5511V38.9505H49.7505V26.4261H53.9029ZM51.5511 32.119H52.9842C53.9847 32.1919 54.9889 32.0413 55.924 31.6782C56.198 31.513 56.4194 31.2734 56.5625 30.9873C56.7056 30.7012 56.7645 30.3804 56.7324 30.0622C56.7639 29.7519 56.7124 29.4389 56.5833 29.155C56.4542 28.8711 56.252 28.6265 55.9975 28.4461C55.039 28.0746 54.009 27.924 52.9842 28.0054H51.5511V32.119Z" fill="black"/>
<path d="M66.25 38.9502V26.4258H75.4368V28.0786H68.0874V31.7514H75.106V33.3674H67.9771V37.481H75.3265V39.1338L66.25 38.9502Z" fill="black"/>
<path d="M82.272 36.0121L83.7786 35.4612C83.9039 36.0574 84.1972 36.6054 84.6238 37.0405C85.0916 37.3847 85.6598 37.5654 86.2407 37.5547C86.5132 37.5762 86.7872 37.5391 87.0442 37.4457C87.3011 37.3523 87.535 37.2049 87.7301 37.0134C87.9252 36.8219 88.0769 36.5908 88.1749 36.3357C88.273 36.0806 88.3151 35.8074 88.2985 35.5347C88.3156 35.0775 88.158 34.631 87.8575 34.2859C87.2728 33.7861 86.5998 33.3999 85.8732 33.1473C84.9209 32.8341 84.0534 32.3063 83.3376 31.6047C82.8414 31.0221 82.5795 30.276 82.6027 29.5112C82.5903 29.0658 82.6722 28.6229 82.8432 28.2114C83.0142 27.8 83.2704 27.4293 83.5949 27.1238C83.9215 26.7692 84.3196 26.4876 84.763 26.2977C85.2063 26.1078 85.6849 26.0138 86.1672 26.022C86.8233 26.011 87.4704 26.1759 88.0413 26.4995C88.6765 26.8417 89.2188 27.3333 89.6214 27.9319L88.2985 29.2541C88.0183 28.7989 87.642 28.4104 87.1961 28.1155C86.8575 27.8904 86.4633 27.7633 86.0569 27.7482C85.5995 27.7311 85.1528 27.8887 84.8075 28.189C84.5491 28.4837 84.4066 28.8622 84.4066 29.2541C84.4066 29.646 84.5491 30.0245 84.8075 30.3192C85.0715 30.6432 85.4127 30.8957 85.7997 31.0538L87.2328 31.7149L88.225 32.1556C88.8476 32.5176 89.3763 33.0209 89.7684 33.6248C90.0666 34.2024 90.206 34.8488 90.1726 35.4979C90.1851 35.9849 90.1006 36.4695 89.9239 36.9235C89.7473 37.3775 89.482 37.7918 89.1437 38.1424C88.7873 38.4963 88.3622 38.7734 87.8944 38.9566C87.4267 39.1397 86.9264 39.2252 86.4244 39.2075C85.4603 39.2374 84.5147 38.9395 83.7419 38.3627C82.9875 37.7791 82.4662 36.9456 82.272 36.0121Z" fill="black"/>
<path d="M96.4927 36.012L98.0361 35.4611C98.1666 36.0717 98.4884 36.6249 98.9547 37.0404C99.4226 37.3846 99.9908 37.5653 100.572 37.5546C100.841 37.5707 101.111 37.5294 101.364 37.4336C101.616 37.3377 101.845 37.1895 102.036 36.9986C102.227 36.8077 102.376 36.5786 102.472 36.3262C102.567 36.0738 102.609 35.804 102.593 35.5346C102.61 35.0774 102.452 34.6309 102.152 34.2858C101.567 33.786 100.894 33.3998 100.167 33.1472C99.2193 32.8249 98.3538 32.2983 97.6318 31.6046C97.1356 31.022 96.8737 30.2759 96.8969 29.5111C96.8845 29.0657 96.9664 28.6228 97.1374 28.2113C97.3084 27.7999 97.5646 27.4292 97.8891 27.1238C98.2074 26.7783 98.5936 26.5021 99.0235 26.3125C99.4535 26.1229 99.9179 26.024 100.388 26.0219C101.056 26.0043 101.717 26.1694 102.299 26.4994C102.916 26.8531 103.444 27.343 103.842 27.9318L102.666 29.1071C102.366 28.6675 101.994 28.2824 101.564 27.9685C101.21 27.747 100.805 27.6204 100.388 27.6012C99.9305 27.5841 99.4838 27.7417 99.1385 28.042C98.906 28.3484 98.7801 28.7225 98.7801 29.1071C98.7801 29.4917 98.906 29.8657 99.1385 30.1722C99.4025 30.4962 99.7436 30.7487 100.131 30.9068L101.564 31.5679L102.556 32.0086C103.179 32.3706 103.707 32.8739 104.099 33.4778C104.398 34.0554 104.537 34.7018 104.504 35.3509C104.516 35.8379 104.432 36.3225 104.255 36.7765C104.078 37.2305 103.813 37.6448 103.475 37.9954C103.118 38.3492 102.693 38.6263 102.225 38.8095C101.758 38.9927 101.257 39.0781 100.755 39.0605C99.7921 39.0846 98.8482 38.7874 98.0728 38.2157C97.3057 37.6872 96.7469 36.9079 96.4927 36.012Z" fill="black"/>
</g>
<defs>
<clipPath id="clip0_253_85735">
<rect width="111.895" height="38.8954" fill="white" transform="translate(0.105469 0.312134)"/>
</clipPath>
</defs>
</svg>
