<svg width="29" height="29" viewBox="0 0 29 29" fill="none" xmlns="http://www.w3.org/2000/svg">
<path fill-rule="evenodd" clip-rule="evenodd" d="M27.1144 13.9878C27.1144 21.0468 21.3911 26.7701 14.3321 26.7701C7.27306 26.7701 1.5498 21.0468 1.5498 13.9878C1.5498 6.92883 7.27306 1.20557 14.3321 1.20557C21.3911 1.20557 27.1144 6.92883 27.1144 13.9878ZM14.7901 10.6421C13.547 11.1587 11.062 12.2292 7.33591 13.8526C6.73089 14.0933 6.41347 14.3287 6.3847 14.5588C6.3357 14.9487 6.82356 15.1021 7.4861 15.3098C7.57665 15.3386 7.67038 15.3672 7.76625 15.3992C8.41922 15.6112 9.29693 15.8594 9.75283 15.8689C10.1672 15.8775 10.6295 15.7071 11.1397 15.3577C14.6207 13.0068 16.4177 11.8191 16.5306 11.7936C16.6105 11.7754 16.7212 11.752 16.7958 11.8191C16.8704 11.8852 16.8629 12.0109 16.8555 12.0449C16.8065 12.2505 14.8956 14.0283 13.905 14.9487C13.596 15.2352 13.3777 15.4386 13.3329 15.4855C13.2328 15.5888 13.1305 15.6879 13.0325 15.7827C12.4254 16.3664 11.9716 16.8053 13.0581 17.5211C13.5801 17.8652 13.9976 18.1496 14.4141 18.4329C14.8689 18.7428 15.3227 19.0518 15.9107 19.4373C16.0598 19.5354 16.2026 19.6365 16.342 19.7356C16.8715 20.1137 17.3476 20.4525 17.9356 20.3992C18.2765 20.3672 18.6301 20.0466 18.8091 19.089C19.232 16.8245 20.0649 11.9203 20.2578 9.89858C20.2694 9.73073 20.2623 9.56208 20.2364 9.39581C20.221 9.26153 20.1556 9.13796 20.0533 9.04962C19.9009 8.925 19.6644 8.89837 19.5579 8.90049C19.0775 8.90902 18.3404 9.16574 14.7901 10.6421Z" fill="#7F929D"/>
</svg>
