<svg width="27" height="28" viewBox="0 0 27 28" fill="none" xmlns="http://www.w3.org/2000/svg">
<path d="M13.4214 0.54541C6.00887 0.54541 0 6.55428 0 13.9668C0 21.3793 6.00887 27.3882 13.4214 27.3882C20.8339 27.3882 26.8428 21.3793 26.8428 13.9668C26.8428 6.55428 20.8339 0.54541 13.4214 0.54541ZM18.8809 11.5398C18.8864 11.6544 18.8878 11.7691 18.8878 11.8809C18.8878 15.376 16.2302 19.4038 11.3676 19.4038C9.93084 19.4062 8.52393 18.9936 7.31606 18.2154C7.52158 18.2407 7.73268 18.2505 7.94658 18.2505C9.18527 18.2505 10.3247 17.8296 11.2292 17.1194C10.678 17.1086 10.1439 16.9261 9.7013 16.5973C9.25873 16.2684 8.92976 15.8098 8.76025 15.2852C9.15613 15.3605 9.56393 15.3447 9.9528 15.2391C9.3545 15.118 8.81645 14.7939 8.42991 14.3214C8.04335 13.849 7.8321 13.2575 7.83194 12.647V12.6149C8.18845 12.812 8.59668 12.9322 9.03008 12.9462C8.46917 12.5728 8.0721 11.9993 7.92009 11.3428C7.76806 10.6864 7.87256 9.99665 8.21221 9.41471C8.87624 10.2312 9.70431 10.8991 10.6428 11.3752C11.5814 11.8514 12.6094 12.1251 13.6605 12.1787C13.5268 11.6115 13.5844 11.0161 13.824 10.4849C14.0637 9.95382 14.4723 9.51676 14.9859 9.24172C15.4997 8.96668 16.0899 8.86908 16.6648 8.96408C17.2397 9.05907 17.7671 9.34135 18.165 9.76703C18.7567 9.64998 19.324 9.43296 19.8427 9.12531C19.6455 9.73785 19.2327 10.258 18.6808 10.5891C19.205 10.526 19.7167 10.3851 20.1992 10.1711C19.8448 10.7022 19.3983 11.1657 18.8809 11.5398Z" fill="#7F929D"/>
</svg>
